<svg width="20" height="21" viewBox="0 0 20 21" fill="none" xmlns="http://www.w3.org/2000/svg">
<path d="M10 0.778076C4.48613 0.778076 0 5.26397 0 10.7781C0 16.2922 4.48613 20.7781 10 20.7781C15.5141 20.7781 20 16.2922 20 10.7781C20 5.26397 15.5139 0.778076 10 0.778076ZM10 19.3182C5.29102 19.3182 1.45984 15.4871 1.45984 10.7781C1.45984 6.06909 5.29102 2.23792 10 2.23792C14.709 2.23792 18.5402 6.06905 18.5402 10.7778C18.5402 15.4871 14.709 19.3182 10 19.3182Z" fill="#BDBDBD"/>
<path d="M13.4064 10.778H10.2434V6.39838C10.2434 5.99521 9.91666 5.66846 9.51349 5.66846C9.11033 5.66846 8.78357 5.99521 8.78357 6.39838V11.5079C8.78357 11.911 9.11033 12.2378 9.51349 12.2378H13.4064C13.8096 12.2378 14.1363 11.911 14.1363 11.5079C14.1363 11.1047 13.8096 10.778 13.4064 10.778Z" fill="#BDBDBD"/>
</svg>
